<svg width="294" height="284" fill="none" xmlns="http://www.w3.org/2000/svg"><path d="M294 40c0 22.091-17.909 40-40 40s-40-17.909-40-40 17.909-40 40-40 40 17.909 40 40Zm-64.536 0c0 13.55 10.985 24.536 24.536 24.536 13.551 0 24.536-10.985 24.536-24.536 0-13.55-10.985-24.536-24.536-24.536-13.551 0-24.536 10.985-24.536 24.536Z" fill="#F3848C" fill-opacity=".12"/><path d="M36 259c0 13.807-11.193 25-25 25s-25-11.193-25-25 11.193-25 25-25 25 11.193 25 25Zm-40.335 0c0 8.469 6.866 15.335 15.335 15.335 8.47 0 15.335-6.866 15.335-15.335 0-8.469-6.866-15.335-15.335-15.335-8.47 0-15.335 6.866-15.335 15.335Z" fill="#E6C01C" fill-opacity=".06"/></svg>