<svg width="320" height="800" fill="none" xmlns="http://www.w3.org/2000/svg"><path d="M200 622c0 11.046-8.954 20-20 20s-20-8.954-20-20 8.954-20 20-20 20 8.954 20 20Zm-32.268 0c0 6.775 5.493 12.268 12.268 12.268s12.268-5.493 12.268-12.268-5.493-12.268-12.268-12.268-12.268 5.493-12.268 12.268ZM17 780c0 11.046-8.954 20-20 20s-20-8.954-20-20 8.954-20 20-20 20 8.954 20 20Zm-32.268 0c0 6.775 5.493 12.268 12.268 12.268S9.268 786.775 9.268 780 3.775 767.732-3 767.732-15.268 773.225-15.268 780Z" fill="#F3848C" fill-opacity=".12"/><path d="M242 25c0 13.807-11.193 25-25 25s-25-11.193-25-25 11.193-25 25-25 25 11.193 25 25Zm-43.485 0c0 10.209 8.276 18.485 18.485 18.485S235.485 35.209 235.485 25 227.209 6.515 217 6.515 198.515 14.791 198.515 25Z" fill="#3C322D" fill-opacity=".12"/><path d="M343 198c0 13.807-11.193 25-25 25s-25-11.193-25-25 11.193-25 25-25 25 11.193 25 25Zm-40.372 0c0 8.49 6.882 15.372 15.372 15.372s15.372-6.882 15.372-15.372-6.882-15.372-15.372-15.372-15.372 6.882-15.372 15.372Z" fill="#D68362" fill-opacity=".15"/><path d="M265 364c0 5.523-4.477 10-10 10s-10-4.477-10-10 4.477-10 10-10 10 4.477 10 10Zm-17.394 0a7.393 7.393 0 0 0 7.394 7.394 7.393 7.393 0 0 0 7.394-7.394 7.393 7.393 0 0 0-7.394-7.394 7.393 7.393 0 0 0-7.394 7.394Z" fill="#3C322D" fill-opacity=".12"/><path d="M22 299c0 13.807-11.193 25-25 25s-25-11.193-25-25 11.193-25 25-25 25 11.193 25 25Zm-43.253 0c0 10.081 8.172 18.253 18.253 18.253S15.253 309.081 15.253 299 7.081 280.747-3 280.747-21.253 288.919-21.253 299Z" fill="#D68362" fill-opacity=".17"/><path d="M331 471c0 8.837-7.163 16-16 16s-16-7.163-16-16 7.163-16 16-16 16 7.163 16 16Zm-22.401 0a6.401 6.401 0 1 0 12.802 0 6.401 6.401 0 0 0-12.802 0Z" fill="#3C322D" fill-opacity=".06"/></svg>