<svg width="1169" height="686" fill="none" xmlns="http://www.w3.org/2000/svg"><path d="M827 83.5c0 18.502-14.998 33.5-33.5 33.5-18.502 0-33.5-14.998-33.5-33.5 0-18.501 14.998-33.5 33.5-33.5 18.502 0 33.5 14.999 33.5 33.5Zm-46.903 0c0 7.402 6.001 13.403 13.403 13.403s13.403-6.001 13.403-13.403-6.001-13.403-13.403-13.403-13.403 6.001-13.403 13.403Z" fill="#3C322D" fill-opacity=".06"/><path d="M490 305c0 22.091-17.909 40-40 40s-40-17.909-40-40 17.909-40 40-40 40 17.909 40 40Zm-64.536 0c0 13.551 10.985 24.536 24.536 24.536 13.551 0 24.536-10.985 24.536-24.536 0-13.551-10.985-24.536-24.536-24.536-13.551 0-24.536 10.985-24.536 24.536Z" fill="#F3848C" fill-opacity=".12"/><path d="M877 444c0 27.614-22.386 50-50 50s-50-22.386-50-50 22.386-50 50-50 50 22.386 50 50Zm-86.507 0c0 20.162 16.345 36.507 36.507 36.507s36.507-16.345 36.507-36.507-16.345-36.507-36.507-36.507-36.507 16.345-36.507 36.507Z" fill="#D68362" fill-opacity=".17"/><path d="M325 636c0 27.614-22.386 50-50 50s-50-22.386-50-50 22.386-50 50-50 50 22.386 50 50Zm-80.67 0c0 16.938 13.732 30.67 30.67 30.67 16.938 0 30.67-13.732 30.67-30.67 0-16.938-13.732-30.67-30.67-30.67-16.938 0-30.67 13.732-30.67 30.67Z" fill="#E6C01C" fill-opacity=".06"/><path d="M100 169c0 27.614-22.386 50-50 50S0 196.614 0 169s22.386-50 50-50 50 22.386 50 50Zm-86.97 0c0 20.418 16.552 36.97 36.97 36.97S86.97 189.418 86.97 169 70.418 132.03 50 132.03 13.03 148.582 13.03 169Z" fill="#3C322D" fill-opacity=".12"/><path d="M1205 50c0 27.614-22.39 50-50 50s-50-22.386-50-50 22.39-50 50-50 50 22.386 50 50Zm-80.74 0c0 16.979 13.76 30.743 30.74 30.743 16.98 0 30.74-13.764 30.74-30.743s-13.76-30.743-30.74-30.743c-16.98 0-30.74 13.764-30.74 30.743Z" fill="#D68362" fill-opacity=".15"/><path d="M377 447c0 5.523-4.477 10-10 10s-10-4.477-10-10 4.477-10 10-10 10 4.477 10 10Zm-17.394 0a7.393 7.393 0 0 0 7.394 7.394 7.393 7.393 0 0 0 7.394-7.394 7.393 7.393 0 0 0-7.394-7.394 7.393 7.393 0 0 0-7.394 7.394Z" fill="#3C322D" fill-opacity=".12"/></svg>