<svg width="736" height="494" fill="none" xmlns="http://www.w3.org/2000/svg"><path d="M396 171c0 11.046-8.954 20-20 20s-20-8.954-20-20 8.954-20 20-20 20 8.954 20 20Zm-32.268 0c0 6.775 5.493 12.268 12.268 12.268s12.268-5.493 12.268-12.268-5.493-12.268-12.268-12.268-12.268 5.493-12.268 12.268Z" fill="#F3848C" fill-opacity=".12"/><path d="M303 384c0 13.807-11.193 25-25 25s-25-11.193-25-25 11.193-25 25-25 25 11.193 25 25Zm-40.335 0c0 8.469 6.866 15.335 15.335 15.335 8.469 0 15.335-6.866 15.335-15.335 0-8.469-6.866-15.335-15.335-15.335-8.469 0-15.335 6.866-15.335 15.335Z" fill="#E6C01C" fill-opacity=".06"/><path d="M50 63c0 13.807-11.193 25-25 25S0 76.807 0 63s11.193-25 25-25 25 11.193 25 25ZM6.515 63c0 10.209 8.276 18.485 18.485 18.485S43.485 73.209 43.485 63 35.209 44.515 25 44.515 6.515 52.791 6.515 63ZM346 254c0 5.523-4.477 10-10 10s-10-4.477-10-10 4.477-10 10-10 10 4.477 10 10Zm-17.394 0a7.393 7.393 0 0 0 7.394 7.394 7.393 7.393 0 0 0 7.394-7.394 7.393 7.393 0 0 0-7.394-7.394 7.393 7.393 0 0 0-7.394 7.394Z" fill="#3C322D" fill-opacity=".12"/><path d="M761 25c0 13.807-11.193 25-25 25s-25-11.193-25-25 11.193-25 25-25 25 11.193 25 25Zm-40.372 0c0 8.49 6.882 15.372 15.372 15.372S751.372 33.489 751.372 25c0-8.49-6.882-15.372-15.372-15.372S720.628 16.511 720.628 25Z" fill="#D68362" fill-opacity=".15"/><path d="M580 234c0 13.807-11.193 25-25 25s-25-11.193-25-25 11.193-25 25-25 25 11.193 25 25Zm-43.253 0c0 10.081 8.172 18.253 18.253 18.253s18.253-8.172 18.253-18.253-8.172-18.253-18.253-18.253-18.253 8.172-18.253 18.253Z" fill="#D68362" fill-opacity=".17"/><path d="M541 55c0 8.837-7.163 16-16 16s-16-7.163-16-16 7.163-16 16-16 16 7.163 16 16Zm-22.401 0a6.401 6.401 0 1 0 12.802 0 6.401 6.401 0 0 0-12.802 0ZM538 478c0 8.837-7.163 16-16 16s-16-7.163-16-16 7.163-16 16-16 16 7.163 16 16Zm-22.401 0a6.401 6.401 0 1 0 12.802 0 6.401 6.401 0 0 0-12.802 0Z" fill="#3C322D" fill-opacity=".06"/></svg>