<svg aria-hidden="true" style="width:0;height:0;position:absolute;overflow:hidden" xmlns="http://www.w3.org/2000/svg"><defs><symbol id="icon-bg_decor" viewBox="0 0 32 32"><path fill="#f3848c" style="fill:var(--color1,#f3848c)" opacity=".12" d="M32 16c0 8.836-7.164 16-16 16S0 24.836 0 16 7.164 0 16 0s16 7.164 16 16zM6.186 16c0 5.42 4.394 9.814 9.814 9.814S25.814 21.42 25.814 16 21.42 6.186 16 6.186 6.186 10.58 6.186 16z"/></symbol><symbol id="icon-fb" viewBox="0 0 16 32"><path d="M14.512.006 10.896 0c-4.064 0-6.69 3.092-6.69 7.876v3.63H.568c-.314 0-.568.294-.568.654v5.26c0 .36.254.652.568.652h3.638v13.276c0 .36.254.652.568.652H9.52c.314 0 .568-.292.568-.652V18.072h4.252c.314 0 .568-.292.568-.652l.002-5.26c0-.174-.06-.34-.166-.462a.535.535 0 0 0-.402-.192h-4.254V8.428c0-1.48.308-2.23 1.988-2.23h2.436c.314 0 .568-.294.568-.654V.66c0-.36-.254-.652-.568-.654z"/></symbol><symbol id="icon-insta" viewBox="0 0 32 32"><path d="M16.316 32h-.32l-.461.001c-2.329 0-4.64-.072-6.933-.212l.314.015c-2.066-.126-3.952-.84-5.454-2.064-1.45-1.182-2.44-2.78-2.942-4.75-.44-1.716-.46-3.4-.484-5.026C.02 18.794.004 17.41 0 16.004c.004-1.414.02-2.8.036-3.968.022-1.628.046-3.31.484-5.026.5-1.97 1.492-3.568 2.94-4.75C4.966 1.036 6.852.32 8.92.196c2.252-.138 4.57-.2 7.084-.196l.443-.001c2.335 0 4.653.071 6.952.212l-.316-.015c2.066.124 3.952.84 5.454 2.064 1.45 1.182 2.44 2.78 2.944 4.75.436 1.716.46 3.4.48 5.026.018 1.17.034 2.554.038 3.96v.006c-.004 1.408-.02 2.792-.036 3.96-.022 1.63-.046 3.312-.482 5.028-.504 1.97-1.494 3.568-2.944 4.75-1.502 1.224-3.388 1.94-5.454 2.064-1.968.125-4.268.196-6.585.196h-.193.01zm-.32-2.5.48.001c2.271 0 4.526-.069 6.763-.206l-.307.015c1.56-.096 2.916-.602 4.026-1.508 1.026-.836 1.734-1.99 2.1-3.43.364-1.428.386-2.96.406-4.444.016-1.16.032-2.534.036-3.928-.004-1.394-.02-2.768-.036-3.93-.02-1.48-.04-3.014-.406-4.44-.368-1.44-1.074-2.596-2.1-3.432-1.11-.906-2.464-1.412-4.026-1.508-1.93-.122-4.186-.191-6.457-.191l-.5.001h.026l-.485-.001c-2.269 0-4.522.069-6.756.206l.307-.015c-1.56.096-2.916.602-4.026 1.508-1.026.836-1.734 1.99-2.1 3.43-.364 1.428-.386 2.96-.406 4.442a364.21 364.21 0 0 0-.036 3.932c.004 1.39.02 2.766.036 3.926.02 1.484.04 3.016.406 4.444.366 1.44 1.074 2.594 2.1 3.43 1.11.906 2.464 1.412 4.026 1.508 2.2.134 4.468.196 6.928.19zm-.06-5.688A7.82 7.82 0 0 1 8.126 16a7.82 7.82 0 0 1 7.814-7.812A7.82 7.82 0 0 1 23.75 16a7.82 7.82 0 0 1-7.812 7.812zm0-13.124A5.32 5.32 0 0 0 10.626 16a5.32 5.32 0 0 0 5.314 5.312A5.32 5.32 0 0 0 21.25 16a5.32 5.32 0 0 0-5.312-5.312zm8.69-5-.061-.001a1.876 1.876 0 0 0 0 3.752l.064-.001h-.003a1.877 1.877 0 0 0 .003-3.75h-.003z"/></symbol><symbol id="icon-twi" viewBox="0 0 34 32"><path d="M34.133 3.669a13.11 13.11 0 0 1-3.96 1.229l-.072.009c1.451-.969 2.558-2.492 3.078-4.324a12.957 12.957 0 0 1-4.349 1.875l-.088.017C27.458.948 25.627 0 23.631 0c-3.874 0-6.993 3.516-6.993 7.825 0 .619.047 1.216.162 1.783C10.982 9.29 5.835 6.173 2.377 1.425a8.477 8.477 0 0 0-.958 3.944v.012-.001c0 2.709 1.248 5.109 3.108 6.5a6.332 6.332 0 0 1-3.188-.98l.026.015V11c0 3.804 2.426 6.961 5.606 7.689-.57.173-1.19.256-1.835.256-.448 0-.9-.028-1.325-.132.907 3.098 3.479 5.376 6.539 5.449-2.381 2.082-5.404 3.337-8.676 3.337-.574 0-1.124-.03-1.675-.107 3.1 2.234 6.773 3.509 10.735 3.509 12.877 0 19.917-11.925 19.917-22.259 0-.346-.011-.681-.026-1.011a15.072 15.072 0 0 0 3.469-3.993l.038-.068z"/></symbol><symbol id="icon-inst" viewBox="0 0 32 32"><path d="M16.316 32h-.32l-.461.001c-2.329 0-4.64-.072-6.933-.212l.314.015c-2.066-.126-3.952-.84-5.454-2.064-1.45-1.182-2.44-2.78-2.942-4.75-.44-1.716-.46-3.4-.484-5.026C.02 18.794.004 17.41 0 16.004c.004-1.414.02-2.8.036-3.968.022-1.628.046-3.31.484-5.026.5-1.97 1.492-3.568 2.94-4.75C4.966 1.036 6.852.32 8.92.196c2.252-.138 4.57-.2 7.084-.196l.443-.001c2.335 0 4.653.071 6.952.212l-.316-.015c2.066.124 3.952.84 5.454 2.064 1.45 1.182 2.44 2.78 2.944 4.75.436 1.716.46 3.4.48 5.026.018 1.17.034 2.554.038 3.96v.006c-.004 1.408-.02 2.792-.036 3.96-.022 1.63-.046 3.312-.482 5.028-.504 1.97-1.494 3.568-2.944 4.75-1.502 1.224-3.388 1.94-5.454 2.064-1.968.125-4.268.196-6.585.196h-.193.01zm-.32-2.5.48.001c2.271 0 4.526-.069 6.763-.206l-.307.015c1.56-.096 2.916-.602 4.026-1.508 1.026-.836 1.734-1.99 2.1-3.43.364-1.428.386-2.96.406-4.444.016-1.16.032-2.534.036-3.928-.004-1.394-.02-2.768-.036-3.93-.02-1.48-.04-3.014-.406-4.44-.368-1.44-1.074-2.596-2.1-3.432-1.11-.906-2.464-1.412-4.026-1.508-1.93-.122-4.186-.191-6.457-.191l-.5.001h.026l-.485-.001c-2.269 0-4.522.069-6.756.206l.307-.015c-1.56.096-2.916.602-4.026 1.508-1.026.836-1.734 1.99-2.1 3.43-.364 1.428-.386 2.96-.406 4.442a364.21 364.21 0 0 0-.036 3.932c.004 1.39.02 2.766.036 3.926.02 1.484.04 3.016.406 4.444.366 1.44 1.074 2.594 2.1 3.43 1.11.906 2.464 1.412 4.026 1.508 2.2.134 4.468.196 6.928.19zm-.06-5.688A7.82 7.82 0 0 1 8.126 16a7.82 7.82 0 0 1 7.814-7.812A7.82 7.82 0 0 1 23.75 16a7.82 7.82 0 0 1-7.812 7.812zm0-13.124A5.32 5.32 0 0 0 10.626 16a5.32 5.32 0 0 0 5.314 5.312A5.32 5.32 0 0 0 21.25 16a5.32 5.32 0 0 0-5.312-5.312zm8.69-5-.061-.001a1.876 1.876 0 0 0 0 3.752l.064-.001h-.003a1.877 1.877 0 0 0 .003-3.75h-.003z"/></symbol><symbol id="icon-facebook" viewBox="0 0 16 32"><path d="M14.512.006 10.896 0c-4.064 0-6.69 3.092-6.69 7.876v3.63H.568c-.314 0-.568.294-.568.654v5.26c0 .36.254.652.568.652h3.638v13.276c0 .36.254.652.568.652H9.52c.314 0 .568-.292.568-.652V18.072h4.252c.314 0 .568-.292.568-.652l.002-5.26c0-.174-.06-.34-.166-.462a.535.535 0 0 0-.402-.192h-4.254V8.428c0-1.48.308-2.23 1.988-2.23h2.436c.314 0 .568-.294.568-.654V.66c0-.36-.254-.652-.568-.654z"/></symbol><symbol id="icon-phone" viewBox="0 0 32 32"><path d="M29.43 20.474c-1.959 0-3.882-.299-5.705-.886-.893-.297-1.991-.025-2.536.521l-3.598 2.648c-4.172-2.171-6.743-4.676-8.939-8.713l2.636-3.416a2.475 2.475 0 0 0 .636-2.554 17.325 17.325 0 0 1-.912-5.571C11.012 1.123 9.86 0 8.445 0H2.569C1.153 0 .001 1.123.001 2.503c0 15.819 13.202 28.689 29.43 28.689 1.416 0 2.568-1.123 2.568-2.503v-5.712c0-1.38-1.152-2.503-2.568-2.503z"/></symbol><symbol id="icon-twitter" viewBox="0 0 34 32"><path d="M34.133 3.669a13.11 13.11 0 0 1-3.96 1.229l-.072.009c1.451-.969 2.558-2.492 3.078-4.324a12.957 12.957 0 0 1-4.349 1.875l-.088.017C27.458.948 25.627 0 23.631 0c-3.874 0-6.993 3.516-6.993 7.825 0 .619.047 1.216.162 1.783C10.982 9.29 5.835 6.173 2.377 1.425a8.477 8.477 0 0 0-.958 3.944v.012-.001c0 2.709 1.248 5.109 3.108 6.5a6.332 6.332 0 0 1-3.188-.98l.026.015V11c0 3.804 2.426 6.961 5.606 7.689-.57.173-1.19.256-1.835.256-.448 0-.9-.028-1.325-.132.907 3.098 3.479 5.376 6.539 5.449-2.381 2.082-5.404 3.337-8.676 3.337-.574 0-1.124-.03-1.675-.107 3.1 2.234 6.773 3.509 10.735 3.509 12.877 0 19.917-11.925 19.917-22.259 0-.346-.011-.681-.026-1.011a15.072 15.072 0 0 0 3.469-3.993l.038-.068z"/></symbol><symbol id="icon-location" viewBox="0 0 23 32"><path d="M11.733 0c6.47 0 11.733 5.131 11.733 11.438a11.15 11.15 0 0 1-2.341 6.857l-8.669 11.382c-.022.028-.055.038-.079.063a.887.887 0 0 1-1.367-.063c-2.496-3.247-7.072-9.312-8.832-11.599l-.001-.003-.011-.014a11.162 11.162 0 0 1-2.167-6.623C-.001 5.131 5.263 0 11.732 0zm0 17.609c3.483 0 6.33-2.775 6.33-6.171s-2.847-6.171-6.33-6.171-6.33 2.775-6.33 6.171 2.847 6.171 6.33 6.171z"/></symbol></defs></svg>