<svg width="294" height="284" viewBox="0 0 294 284" fill="none" xmlns="http://www.w3.org/2000/svg">
<path d="M294 40C294 62.0914 276.091 80 254 80C231.909 80 214 62.0914 214 40C214 17.9086 231.909 0 254 0C276.091 0 294 17.9086 294 40ZM229.464 40C229.464 53.5507 240.449 64.5357 254 64.5357C267.551 64.5357 278.536 53.5507 278.536 40C278.536 26.4493 267.551 15.4643 254 15.4643C240.449 15.4643 229.464 26.4493 229.464 40Z" fill="#F3848C" fill-opacity="0.12"/>
<path d="M36 259C36 272.807 24.8071 284 11 284C-2.80712 284 -14 272.807 -14 259C-14 245.193 -2.80712 234 11 234C24.8071 234 36 245.193 36 259ZM-4.33482 259C-4.33482 267.469 2.53082 274.335 11 274.335C19.4692 274.335 26.3348 267.469 26.3348 259C26.3348 250.531 19.4692 243.665 11 243.665C2.53082 243.665 -4.33482 250.531 -4.33482 259Z" fill="#E6C01C" fill-opacity="0.06"/>
</svg>
