<svg xmlns="http://www.w3.org/2000/svg" xmlns:xlink="http://www.w3.org/1999/xlink" width="831.999" height="832.717" viewBox="0 0 779.999 780.673">
  <defs>
    <radialGradient xlink:href="#a" id="b" cx="-385.209" cy="1103.646" r="299.999" fx="-385.209" fy="1103.646" gradientTransform="translate(1810.705 4.093)" gradientUnits="userSpaceOnUse"/>
    <linearGradient id="a">
      <stop offset="0" style="stop-color:#b66c2f;stop-opacity:1"/>
      <stop offset="1" style="stop-color:#ecc084;stop-opacity:1"/>
    </linearGradient>
    <filter id="c" width="1.089" height="1.104" x="-.045" y="-.052" style="color-interpolation-filters:sRGB">
      <feGaussianBlur stdDeviation="9.54"/>
    </filter>
  </defs>
  <g style="display:inline">
    <g style="display:inline">
      <path d="M1425.497 808.685a299.057 299.057 0 0 0-299.057 299.057 299.057 299.057 0 0 0 299.057 299.059 299.057 299.057 0 0 0 299.056-299.059 299.057 299.057 0 0 0-299.056-299.057Zm0 209.907a89.151 89.151 0 0 1 89.152 89.152 89.151 89.151 0 0 1-89.152 89.15 89.151 89.151 0 0 1-89.153-89.15 89.151 89.151 0 0 1 89.153-89.152z" style="display:inline;opacity:1;fill:url(#b);fill-opacity:1;fill-rule:evenodd;stroke:#000;stroke-width:1.88553023;stroke-linecap:round;stroke-linejoin:round;stroke-miterlimit:4;stroke-dasharray:none;stroke-dashoffset:0;stroke-opacity:1" transform="translate(-1035.497 -717.282)"/>
      <path d="M1407.623 808.201c-19.962 2.714-39.678 8.357-56.917 18.771-11.404 9.774-22.663 19.812-37.952 22.509-9.866 3.607-19.736 7.193-30.414 5.793-18.375 11.52-27.227 32.459-44.9 44.9-8.275 5.597-12.814 13.736-15.932 23.174-4.331 12.582-21.35 11.59-26.313 23.978-11.7 13.282-23.538 27.578-25.55 45.875-7.243 22.862-14.989 46.007-27.85 66.396-2.021 10.445-16.048 14.124-13.254 25.657-1.304 24.334 1.031 48.676 4.615 72.73 12.397 5.384 21.088 16.85 21.23 30.576 5.246 12.237 13.848 23.411 18.967 35.873 12.974 16.347 27.744 31.426 46.705 40.731 15.93 16.448 24.42 37.89 34.762 57.934 20.4 16.276 51.417 18.04 64.663 42.926 5.825 6.844 13.374 16.526 22.923 16.459 12.806.433 26.528-2.7 37.005 6.581 9.008 5.618 20.472 8.279 26.039 18.04 12.795-.732 25.59-.787 38.383 0 11.77-18.352 33.576-24.976 51.57-35.562 15.089-8.868 33.835-9.257 47.107-21.532 11.396-7.685 23.178-14.935 37.35-15.184 25.27-4.23 52.166-11.78 69.281-31.927 8.04-10.588 13.875-22.085 15.087-35.489 9.306-16.729 20.048-33.179 28.212-50.782 7.463-14.154 10.322-30.508 14.213-45.836-.846-20.433.215-41.15-7.182-60.604-.475-20.23 11.53-38.408 8.689-58.766-.89-14.503 5.97-28.808-.763-42.774-3.194-16.569-8.348-32.365-17.877-46.433-11.887-25.732-34.73-43.621-52.468-65.166-12.137-16.373-30.64-25.816-47.883-35.755-15.357-5.502-30.034-14.603-46.954-11.813-12.046-1.193-25.651 2.484-36.658-1.95-18.023-10.755-27.332-35.602-50.475-36.862-15.7-3.186-31.537-2.464-47.46-2.468zm38.381 186.118c11.06-4.446 16.318 6.26 24.99 10.702 18.979-1.834 5.478 23.456 19.364 26.207 8.147 8.842 21.99-2.266 27.192 8.35 2.937 10.582 18.777 8.509 16.72 20.753.505 10.763 15.5 14.162 10.597 26.771-9.077 4.96-28.106 23.31-11.261 30.508 8.693 6.405 9.115 18.723 1.51 26.352-18.634.794-18.78 12.936-23.27 26.81-4.914 10.764.23 24.968-8.722 33.494-14.632 6.147-30.897-5.17-38.624 13.61-11.707.858-18.851-5.635-23.828-15.622-9.205 5.943-19.061 9.753-30.152 9.518-6.545-7.08-15.166-15.997-24.616-16.33-11.645 6.273-27.946 19.398-33.052-.07-9.566-6.555-21.422-17.073-15.914-29.916 2.588-10.368 2.481-19.891-7.687-25.802-8.94-4.19-21.578-9.167-17.959-21.42 4.504-9.957 10.546-21.132 4.113-31.87 4.15-12.38.737-36.793 19.745-36.618 11.64 3.268 20.126.387 23.913-11.651 5.097-8.103-7.442-22.812 6.612-25.452 7.576-7.77 19.702-2.88 26.235-11.722 11.443-15.162 25.068 1.696 37.554 3.683 10.295 1.712 13.144-.54 16.54-10.285z" style="fill:#fc75ba;fill-opacity:1;fill-rule:evenodd;stroke:#000;stroke-width:1.70000005;stroke-linecap:round;stroke-linejoin:round;stroke-miterlimit:4;stroke-dasharray:none;stroke-opacity:1" transform="translate(-1035.497 -717.282)"/>
      <g style="fill:#d1438b;fill-opacity:1;stroke:none;filter:url(#c)" transform="translate(382.877 831.15)">
        <path d="M-147.478-530.98a3.994 3.994 0 0 0-1.478 3.072c0 1.175.56 2.338 1.478 3.072.19.153.396.288.582.447.185.16.352.35.442.577.063.16.085.334.087.505.002.172-.014.344-.031.515a10.25 10.25 0 0 0-.056 1.028v11.266c0 1.042.102 2.08.265 3.108.082.514.16 1.032.149 1.553-.013.52-.124 1.052-.414 1.484-.27.402-.674.69-1.024 1.024-.284.271-.535.578-.72.924-.183.346-.298.733-.304 1.125-.005.342.071.689 0 1.024a1.489 1.489 0 0 1-.339.648 3.03 3.03 0 0 1-.555.485c-.402.286-.846.531-1.155.915a2.462 2.462 0 0 0-.45.962 6.221 6.221 0 0 0-.142 1.059c-.05.711-.079 1.456-.432 2.076-.24.421-.612.75-.987 1.057-.375.308-.766.606-1.061.991-.466.607-.66 1.375-1.024 2.048-.183.338-.41.651-.606.982-.196.33-.365.686-.419 1.067-.047.338-.002.682 0 1.024.004.929-.32 1.83-.732 2.663-.413.833-.918 1.618-1.316 2.458-.327.69-.583 1.423-1.024 2.048-.419.594-.985 1.064-1.543 1.53-.557.466-1.12.942-1.53 1.542-.43.632-.669 1.372-1.024 2.049-.355.678-.832 1.307-1.024 2.048-.128.498-.12 1.02-.084 1.533.037.513.102 1.026.084 1.54-.037 1.084-.438 2.121-.88 3.112-.44.992-.932 1.973-1.168 3.032-.261 1.17-.2 2.386-.103 3.58.096 1.195.227 2.397.103 3.59-.126 1.203-.493 2.368-.726 3.556-.233 1.188-.298 2.402-.298 3.612v7.17c0 1.024-.077 2.05 0 3.072.127 1.69.81 3.29 1.62 4.779.809 1.489 1.755 2.905 2.476 4.438.784 1.664 1.293 3.445 2.049 5.121.51 1.13 1.143 2.226 2.048 3.073.355.332.747.621 1.113.941.365.32.709.677.935 1.107.331.628.388 1.36.458 2.066.07.707.169 1.442.566 2.03.348.515.89.865 1.441 1.152.551.288 1.13.53 1.632.897.78.571 1.322 1.41 2.048 2.048.926.814 2.114 1.274 3.073 2.049.752.607 1.341 1.39 2.048 2.048 1.805 1.681 4.284 2.477 6.145 4.096 1.093.952 1.944 2.164 3.072 3.073.96.773 2.092 1.304 3.073 2.048 1.54 1.169 2.65 2.814 4.097 4.097 1.638 1.454 3.696 2.432 5.12 4.096.898 1.05 1.495 2.316 2.073 3.57.577 1.253 1.156 2.526 2.024 3.6 1.217 1.503 2.945 2.542 4.097 4.096.776 1.048 1.255 2.283 1.676 3.518.42 1.235.795 2.494 1.396 3.651.919 1.77 2.347 3.264 3.072 5.121.882 2.256.63 4.78 1.025 7.17.459 2.781 1.797 5.384 2.048 8.192.152 1.701 0 3.414 0 5.121v10.242c0 .685.033 1.37.087 2.054.054.683.11 1.386-.087 2.042-.178.593-.557 1.103-.95 1.58-.394.478-.814.943-1.098 1.493-.498.96-.543 2.103-1.025 3.072-.433.87-1.185 1.535-1.946 2.14-.761.604-1.562 1.183-2.15 1.957-.457.6-.77 1.3-1.22 1.906a3.409 3.409 0 0 1-.798.795 2.04 2.04 0 0 1-1.055.371c-.347.014-.689-.079-1.033-.129a2.227 2.227 0 0 0-.52-.023 1.16 1.16 0 0 0-.495.152c-.208.126-.358.326-.505.52-.148.194-.304.39-.52.504a1.123 1.123 0 0 1-.5.119 2.604 2.604 0 0 1-.517-.052c-.342-.06-.692-.144-1.03-.067-.24.055-.457.19-.638.357a3.2 3.2 0 0 0-.467.57c-.275.408-.53.855-.944 1.122-.22.142-.476.225-.736.26-.26.037-.524.029-.784-.002-.521-.061-1.03-.209-1.552-.258-.709-.068-1.425.048-2.108.25-.682.203-1.336.49-1.989.774-.993.432-2.002.862-3.072 1.024-.845.128-1.705.09-2.559.056a62.91 62.91 0 0 0-2.562-.056h-5.12c-3.759 0-7.537.46-11.267 0-1.728-.213-3.412-.686-5.12-1.024-2.038-.403-4.11-.614-6.145-1.024-5.508-1.11-10.835-3.801-14.338-8.194-1.065-1.334-1.952-2.808-3.073-4.096-1.268-1.458-2.814-2.652-4.096-4.097-1.134-1.277-2.044-2.733-3.073-4.096-1.029-1.364-2.18-2.641-3.072-4.097-.8-1.302-1.378-2.725-2.049-4.097-1.006-2.058-2.228-4.015-3.072-6.145-.679-1.711-1.114-3.534-2.048-5.12-1.111-1.887-2.856-3.318-4.097-5.121-1.262-1.835-1.96-3.99-2.621-6.116-.66-2.127-1.312-4.29-2.5-6.174-1.166-1.85-2.803-3.357-4.096-5.12-3.086-4.208-4.032-9.569-6.145-14.339-2.232-5.037-5.761-9.395-8.194-14.338-1.148-2.333-2.044-4.78-3.072-7.17-.604-1.403-1.257-2.79-2.048-4.096-2.269-3.743-5.605-6.713-8.194-10.241-.728-.993-1.396-2.029-2.048-3.073-1.706-2.732-3.31-5.53-5.12-8.193-.867-1.274-1.806-2.576-2.05-4.097-.107-.675-.076-1.363-.046-2.046.029-.683.047-1.367.047-2.05v-5.121c0-2.392-.291-4.796 0-7.17.412-3.364 2.328-6.324 4.097-9.217 3.589-5.87 6.776-12.002 9.217-18.434 1.196-3.152 2.23-6.411 4.097-9.218 1.744-2.623 4.14-4.738 6.145-7.169 3.134-3.8 5.27-8.323 8.193-12.29 1.296-1.76 2.743-3.404 4.096-5.12 2.411-3.058 4.532-6.353 7.17-9.218 1.962-2.131 4.192-4.004 6.144-6.145 3.453-3.786 5.966-8.33 9.218-12.29 1.388-1.69 2.915-3.28 4.096-5.12 1.238-1.93 2.065-4.087 3.073-6.145 1.75-3.578 4.045-6.857 6.145-10.242 2.099-3.383 4.008-6.882 6.145-10.241 1.32-2.078 2.727-4.1 4.096-6.145 2.319-3.465 4.538-7.009 7.17-10.242 3.576-4.394 8.01-8.247 13.313-10.241 2.022-.76 4.142-1.242 6.145-2.049 1.005-.404 1.997-.895 3.073-1.024 1.018-.122 2.05.09 3.072 0 1.405-.123 2.704-.803 4.097-1.024 1.35-.214 2.729.012 4.097 0 1.368-.012 2.753-.263 4.096 0 1.477.29 2.784 1.19 3.784 2.315 1 1.124 1.723 2.467 2.361 3.83.324.691.63 1.394 1.024 2.048.198.33.419.645.608.98.19.334.35.69.416 1.068.119.674-.067 1.368 0 2.049.054.539.264 1.049.481 1.545.218.496.447.994.544 1.527.122.676.023 1.37-.056 2.052-.08.682-.14 1.386.056 2.045.217.733.73 1.342 1.024 2.048.332.797.373 1.687.307 2.548-.067.862-.236 1.712-.307 2.573-.028.34-.041.685 0 1.024.129 1.075.778 2.018 1.024 3.073.194.833.138 1.702.086 2.556-.053.854-.086 1.709-.086 2.564v2.049c0 .683.096 1.371 0 2.048-.079.55-.326 1.068-.651 1.519-.326.451-.728.841-1.145 1.21-.834.736-1.757 1.42-2.3 2.392-.38.677-.547 1.448-.796 2.183-.124.368-.27.73-.472 1.062-.202.331-.46.633-.781.851-.208.142-.44.248-.64.401-.1.077-.191.166-.261.271a.716.716 0 0 0-.123.352c-.01.178.06.349.096.523a.778.778 0 0 1 .016.265.408.408 0 0 1-.112.237.41.41 0 0 1-.239.106.806.806 0 0 1-.264-.02c-.173-.037-.345-.104-.521-.086a.623.623 0 0 0-.283.104.802.802 0 0 0-.214.215 1.437 1.437 0 0 0-.207.568c-.035.2-.05.404-.09.603-.039.2-.105.398-.23.558a1.18 1.18 0 0 1-.467.34 3.529 3.529 0 0 1-.558.172 3.526 3.526 0 0 0-.557.172 1.18 1.18 0 0 0-.467.34c-.125.16-.191.359-.23.558-.04.2-.055.403-.09.603-.035.2-.093.4-.207.568a.802.802 0 0 1-.214.215.62.62 0 0 1-.283.104c-.176.017-.349-.05-.522-.087a.8.8 0 0 0-.264-.02.408.408 0 0 0-.238.107.407.407 0 0 0-.11.238.787.787 0 0 0 .017.264c.037.174.106.345.093.523a.701.701 0 0 1-.13.347 1.184 1.184 0 0 1-.266.264c-.201.15-.432.257-.628.413-.19.15-.343.34-.5.526-.156.185-.32.369-.524.498-.334.21-.74.258-1.121.36-.19.052-.379.119-.545.225a.97.97 0 0 0-.383.439 1.14 1.14 0 0 0-.062.51c.013.172.046.342.062.514.08.82-.235 1.667-.82 2.247a2.95 2.95 0 0 1-2.252.826c-.172-.012-.342-.04-.514-.05a1.378 1.378 0 0 0-.51.05c-.234.076-.429.242-.588.43-.16.187-.289.397-.437.594-.58.773-1.421 1.312-2.048 2.048a4.817 4.817 0 0 0-1.024 2.048 23.324 23.324 0 0 1-2.048 2.049c-.363.32-.74.633-1.024 1.024-.146.2-.267.419-.423.611-.157.192-.36.36-.602.413-.167.036-.342.015-.512-.005-.17-.02-.346-.038-.512.005a.878.878 0 0 0-.325.17c-.096.076-.178.169-.254.266-.151.194-.275.41-.445.588-.168.177-.375.312-.566.464-.19.153-.371.332-.458.56-.061.162-.072.338-.061.51.01.173.041.343.06.515a3.894 3.894 0 0 1-1.023 3.072zM175.13-637.493a68.188 68.188 0 0 0-9.217-5.12c-1.39-.637-2.806-1.23-4.097-2.05-1.04-.659-1.99-1.46-3.072-2.047-1.618-.878-3.466-1.243-5.12-2.049-.687-.334-1.339-.744-2.05-1.024-1.31-.517-2.761-.57-4.096-1.024-1.026-.349-1.992-.936-3.072-1.024-.682-.056-1.371.093-2.049 0-.536-.074-1.04-.295-1.535-.513-.496-.219-1-.44-1.537-.511-.677-.091-1.365 0-2.048 0h-4.097c-.856 0-1.711-.036-2.565-.093-.854-.057-1.726-.117-2.556.093-.744.188-1.415.59-2.048 1.024-1.805 1.234-3.397 2.751-5.12 4.096-.577.45-1.168.881-1.709 1.373-.54.492-1.031 1.05-1.364 1.7-.493.962-.614 2.072-1.024 3.072-.29.707-.721 1.348-1.025 2.049-.429.991-.595 2.08-1.024 3.072-.303.701-.734 1.342-1.024 2.048-.536 1.304-.568 2.763-1.024 4.097-.299.875-.773 1.678-1.192 2.502-.419.824-.79 1.697-.856 2.619-.05.681.07 1.368 0 2.048-.09.871-.467 1.683-.71 2.524-.242.841-.314 1.721-.314 2.597v3.072c0 .175-.02.348-.05.52-.014.085-.029.172-.027.26a.417.417 0 0 0 .077.245c.054.071.14.115.229.132.089.016.18.008.269-.012.176-.038.345-.118.526-.12a.68.68 0 0 1 .303.068.84.84 0 0 1 .25.186c.143.154.232.35.284.553.105.406.075.837.187 1.24.102.37.318.696.527 1.019.208.322.415.655.497 1.03.073.335.041.683.007 1.024-.034.341-.07.688-.007 1.024.069.364.254.7.491.984.238.283.528.52.83.734.603.43 1.273.79 1.751 1.355.402.474.642 1.06.917 1.619.275.557.61 1.115 1.132 1.453.323.21.697.32 1.059.452.361.131.726.292.99.573.262.28.398.653.523 1.017.125.363.252.738.5 1.03.25.295.604.482.963.622.36.14.735.242 1.086.403.679.312 1.242.84 1.687 1.441.444.601.777 1.276 1.086 1.957.309.68.597 1.373.96 2.026.364.653.81 1.27 1.387 1.745.592.486 1.302.804 2.011 1.092.71.289 1.434.555 2.086.956.825.508 1.509 1.214 2.146 1.944.638.73 1.241 1.493 1.95 2.153 1.252 1.163 2.794 1.968 4.097 3.072 1.845 1.563 3.173 3.69 5.121 5.121.992.73 2.125 1.262 3.072 2.049.746.618 1.358 1.378 1.988 2.113.63.736 1.293 1.461 2.109 1.983.523.335 1.099.58 1.644.877.546.298 1.074.661 1.429 1.171.31.446.469.977.595 1.505.125.528.223 1.066.429 1.568.467 1.142 1.444 1.996 2.048 3.072.53.945.752 2.025 1.024 3.073 1.063 4.101 2.981 8.054 3.073 12.29.022 1.024-.065 2.05 0 3.072.13 2.075.875 4.072 1.024 6.145.097 1.362 0 2.73 0 4.097V-494.111c0 1.366-.123 2.736 0 4.096.224 2.481 1.512 4.737 2.048 7.17.304 1.38.374 2.841 1.024 4.096.567 1.095 1.538 1.95 2.049 3.072.447.985.513 2.12 1.024 3.073.343.642.87 1.166 1.423 1.64.553.475 1.14.911 1.65 1.432.862.884 1.47 1.979 2.062 3.062.592 1.084 1.189 2.183 2.034 3.083.947 1.01 2.167 1.722 3.414 2.323 1.248.6 2.543 1.105 3.755 1.774 1.744.963 3.3 2.261 5.12 3.072 1.913.853 4.051 1.024 6.146 1.024h2.048c.342 0 .683.01 1.025.025.341.015.686.031 1.023-.025.427-.07.83-.257 1.187-.5a6.47 6.47 0 0 0 .978-.853c.604-.62 1.172-1.303 1.932-1.719.474-.26 1-.406 1.521-.552.52-.146 1.038-.301 1.551-.472l3.073-1.024c1.025-.342 2.102-.55 3.072-1.024 1.108-.543 1.96-1.516 3.073-2.049.975-.467 2.092-.568 3.072-1.024 1.118-.52 1.986-1.465 3.073-2.048.814-.437 1.724-.656 2.612-.911.888-.255 1.786-.561 2.508-1.138.757-.602 1.276-1.466 2.049-2.048.496-.374 1.076-.616 1.628-.901.552-.286 1.096-.632 1.444-1.147.215-.318.343-.684.481-1.042.138-.357.291-.718.543-1.006.16-.183.354-.331.54-.488.185-.156.365-.326.484-.537.172-.303.203-.668.173-1.016-.031-.347-.12-.687-.173-1.032-.133-.87-.036-1.765.174-2.62.21-.856.53-1.68.85-2.5a202.268 202.268 0 0 1 2.049-5.121c1.723-4.092 3.719-8.078 5.12-12.29.683-2.05 1.223-4.15 2.049-6.145.584-1.412 1.307-2.761 2.048-4.097 1.638-2.952 3.396-5.915 4.097-9.217.362-1.705.435-3.48 1.024-5.121.516-1.438 1.407-2.71 2.048-4.097.322-.694.584-1.423 1.025-2.048.36-.512.829-.936 1.234-1.413.405-.478.758-1.036.814-1.66.03-.34-.029-.683 0-1.024.053-.624.397-1.188.8-1.668.402-.48.871-.903 1.248-1.404.744-.989 1.087-2.232 1.183-3.466.097-1.233-.036-2.472-.159-3.703-.068-.682-.131-1.376 0-2.048.104-.532.327-1.031.54-1.529.212-.498.417-1.007.484-1.544.085-.678 0-1.365 0-2.048v-6.145c0-.343.017-.685.044-1.027.026-.342.054-.693-.044-1.021a1.693 1.693 0 0 0-.365-.632 3.498 3.498 0 0 0-.551-.485c-.394-.291-.824-.55-1.132-.932-.24-.298-.393-.655-.535-1.011-.142-.356-.277-.718-.489-1.037-.268-.404-.647-.72-1.024-1.024-1.891-1.528-3.94-2.996-5.121-5.121-.37-.668-.646-1.385-1.024-2.048-.61-1.07-1.48-1.98-2.048-3.073-.353-.678-.587-1.421-1.025-2.048-.491-.704-1.208-1.217-1.94-1.667-.732-.45-1.498-.854-2.156-1.406-.37-.31-.702-.664-1.024-1.024-1.617-1.805-3.067-3.834-5.121-5.12-.735-.46-1.531-.815-2.27-1.27-.737-.454-1.432-1.031-1.827-1.803-.175-.342-.286-.713-.427-1.071-.141-.358-.318-.712-.597-.977-.278-.265-.639-.423-.998-.56-.358-.135-.728-.256-1.05-.464-.408-.263-.718-.65-1.022-1.027-.304-.379-.616-.763-1.027-1.022-.34-.214-.733-.332-1.127-.413-.394-.08-.795-.128-1.188-.216-.392-.088-.782-.219-1.111-.45-.33-.232-.594-.574-.67-.969-.064-.336.01-.682 0-1.024-.013-.437-.164-.863-.387-1.239-.224-.375-.519-.704-.833-1.008-.63-.608-1.353-1.132-1.853-1.85-.436-.627-.676-1.368-1.024-2.048a7.12 7.12 0 0 0-3.072-3.073 4.654 4.654 0 0 0-1.024-3.072c-.458-.565-1.042-1.013-1.601-1.477-.56-.465-1.11-.964-1.472-1.595-.38-.665-.54-1.456-1.024-2.049-.306-.374-.723-.646-1.024-1.024-.154-.193-.275-.411-.43-.604a1.468 1.468 0 0 0-.262-.261.884.884 0 0 0-.332-.16c-.168-.037-.342-.015-.513.006-.17.02-.345.04-.511-.005a.863.863 0 0 1-.323-.172 1.613 1.613 0 0 1-.251-.27c-.15-.195-.275-.41-.45-.582-.275-.27-.648-.409-1.012-.534-.364-.124-.74-.246-1.037-.49-.187-.155-.334-.351-.488-.539-.155-.187-.323-.37-.536-.486a1.097 1.097 0 0 0-1.024 0 3.442 3.442 0 0 1-2.049-1.024c-.518-.54-.843-1.233-1.278-1.844a3.622 3.622 0 0 0-.764-.817 1.995 1.995 0 0 0-1.03-.411c-.341-.026-.687.057-1.024 0-.37-.063-.696-.291-.944-.572-.249-.281-.43-.614-.607-.945-.176-.331-.353-.666-.596-.952-.242-.287-.559-.525-.926-.604-.337-.072-.686-.007-1.027.045-.341.05-.701.085-1.02-.045a1.23 1.23 0 0 1-.476-.356 1.809 1.809 0 0 1-.295-.52c-.142-.375-.186-.777-.254-1.172-.181-1.053-.554-2.101-1.258-2.906a3.683 3.683 0 0 0-1.273-.952 2.957 2.957 0 0 0-1.566-.239c-.172.023-.342.063-.515.077a.97.97 0 0 1-.509-.077.906.906 0 0 1-.282-.232c-.08-.093-.146-.196-.215-.298a2.047 2.047 0 0 0-.224-.292.78.78 0 0 0-.303-.202c-.163-.055-.34-.04-.51-.024a5.84 5.84 0 0 1-.514.024H182.3c-.515 0-1.03.03-1.543.077-.512.048-1.045.096-1.53-.077a1.717 1.717 0 0 1-1.024-1.024l-3.073-1.024zM75.787-299.522H49.16c-.855 0-1.71-.031-2.564-.082-.854-.05-1.721-.104-2.556.082-.748.167-1.439.525-2.099.914-.66.39-1.301.815-1.998 1.134-1.92.88-4.224.88-6.145 0a6.766 6.766 0 0 1-2.81 1.812 6.766 6.766 0 0 1-3.335.237c-.519-.095-1.028-.25-1.552-.304a2.894 2.894 0 0 0-.79.017c-.26.045-.513.137-.73.287-.4.274-.65.718-1.024 1.024-.297.242-.659.389-1.017.526-.357.138-.722.273-1.032.498-.313.228-.558.54-.746.878-.187.339-.32.705-.436 1.075-.234.738-.416 1.513-.866 2.144-.563.788-1.484 1.261-2.048 2.048-.446.621-.634 1.39-1.025 2.048-.495.836-1.286 1.445-2.048 2.049-2.467 1.954-4.814 4.056-7.169 6.145-3.274 2.903-6.582 5.793-10.241 8.193-1.665 1.091-3.397 2.077-5.121 3.072-1.725.995-3.444 2-5.121 3.073-1.293.827-2.599 1.711-4.097 2.048-.535.12-1.086.168-1.62.293-.535.125-1.068.338-1.452.731-.353.361-.55.842-.832 1.26a2.13 2.13 0 0 1-.51.554 1.167 1.167 0 0 1-.706.234c-.176-.006-.345-.06-.519-.085a.96.96 0 0 0-.262-.007.53.53 0 0 0-.244.092.504.504 0 0 0-.161.209.734.734 0 0 0-.056.26c-.008.177.034.353.077.525.086.346.14.699.14 1.055v6.144c0 1.025-.096 2.053 0 3.073.102 1.083.492 2.124 1.025 3.072.602 1.074 1.385 2.035 2.048 3.073.733 1.147 1.318 2.384 2.088 3.507.769 1.123 1.762 2.152 3.033 2.638.506.194 1.042.296 1.568.427.526.13 1.054.295 1.504.597.402.27.727.637 1.041 1.006.314.369.624.746 1.007 1.042.606.469 1.353.705 2.049 1.024 2.676 1.228 4.6 3.683 7.169 5.121 1.606.9 3.409 1.372 5.12 2.048 1.712.677 3.346 1.564 5.121 2.049 2.331.636 4.8.55 7.17 1.024 2.438.487 4.73 1.557 7.169 2.048 1.71.344 3.49.404 5.12 1.024 1.075.409 2.043 1.047 3.024 1.646.98.599 2 1.171 3.121 1.427 1.002.228 2.044.194 3.068.12 1.025-.076 2.052-.19 3.077-.12 1.739.12 3.397.769 5.121 1.024 2.03.3 4.094.05 6.145 0 2.048-.05 4.099.098 6.145 0 4.892-.235 9.59-1.868 14.338-3.072 2.411-.612 4.862-1.12 7.17-2.049 3.263-1.314 6.132-3.428 9.216-5.12 3.348-1.838 6.953-3.181 10.242-5.121 4.002-2.36 7.445-5.55 11.266-8.194 4.287-2.965 9.027-5.227 13.314-8.193 3.82-2.643 7.263-5.833 11.265-8.193 3.29-1.94 6.896-3.282 10.242-5.12 3.083-1.695 5.951-3.813 9.217-5.122 2.713-1.086 5.67-1.6 8.194-3.072 2.542-1.482 4.509-3.86 7.169-5.12 1.953-.926 4.162-1.188 6.145-2.05 1.401-.607 2.668-1.506 4.096-2.047 1.318-.5 2.73-.681 4.097-1.025 2.095-.526 4.074-1.434 6.145-2.048 3.43-1.017 7.162-1.25 10.241-3.072 1.47-.87 2.718-2.065 4.097-3.073 1.38-1.009 2.908-1.843 4.097-3.072 1.188-1.228 1.975-2.787 3.072-4.097.93-1.111 2.068-2.028 3.072-3.072 3.302-3.434 4.995-8.052 7.17-12.29 1.889-3.683 4.22-7.226 5.12-11.266.453-2.028.53-4.127 1.024-6.145.336-1.368.863-2.697 1.025-4.096.156-1.358-.038-2.73 0-4.097.046-1.718.438-3.404.692-5.104.254-1.7.332-3.42.332-5.138v-11.265c0-.685.029-1.37.076-2.053.047-.683.097-1.381-.076-2.044-.217-.834-.777-1.533-1.37-2.158-.594-.625-1.242-1.21-1.703-1.939-.41-.648-.657-1.383-.933-2.1-.275-.715-.594-1.433-1.115-1.996-.42-.453-.952-.785-1.49-1.087-.539-.303-1.093-.585-1.582-.961-.681-.523-1.216-1.211-1.69-1.927-.472-.716-.89-1.468-1.383-2.17-1.716-2.448-4.317-4.224-7.169-5.12-1.343-.423-2.737-.659-4.097-1.025-1.36-.367-2.696-.866-4.096-1.024-1.697-.192-3.413 0-5.121 0h-19.459c-2.05 0-4.114-.284-6.145 0-1.395.195-2.717.74-4.096 1.024-1.711.353-3.527.31-5.121 1.024-1.333.597-2.39 1.674-3.317 2.803-.927 1.13-1.764 2.341-2.828 3.342-1.244 1.17-2.757 2.013-4.097 3.073-1.895 1.498-3.42 3.405-5.12 5.12-2.747 2.77-5.953 5.036-9.218 7.17-1.03.673-2.07 1.335-3.072 2.048-4.142 2.943-7.673 6.648-11.266 10.241l-5.12 5.121c-1.026 1.025-2.153 1.953-3.073 3.072-1.087 1.323-1.773 2.983-3.073 4.097-.936.802-2.125 1.26-3.072 2.048-.843.703-1.457 1.635-2.056 2.554-.598.92-1.206 1.855-2.04 2.567-.938.8-2.114 1.276-3.073 2.048-.753.607-1.353 1.379-2.049 2.049-.697.671-1.5 1.25-2.048 2.048-.435.632-.686 1.369-.956 2.087-.271.718-.576 1.442-1.092 2.01-.325.357-.727.643-1.024 1.024-.153.194-.275.41-.431.603-.156.191-.354.362-.594.421-.166.04-.34.025-.511.006-.17-.018-.344-.039-.513-.006-.246.047-.46.205-.622.396-.162.19-.28.415-.396.637-.116.221-.235.445-.4.634-.165.188-.383.341-.63.381-.17.028-.343.001-.513-.019-.17-.02-.348-.033-.511.02a.847.847 0 0 0-.312.189 1.85 1.85 0 0 0-.238.278c-.144.198-.276.413-.474.557-.165.119-.364.181-.564.22-.2.038-.402.054-.602.09-.2.038-.4.098-.566.215a.813.813 0 0 0-.213.215.632.632 0 0 0-.104.284c-.017.176.048.348.084.52.018.087.03.176.02.264a.42.42 0 0 1-.104.24.413.413 0 0 1-.234.119.75.75 0 0 1-.267-.01c-.175-.035-.344-.106-.523-.11a.795.795 0 0 0-.367.086 1.09 1.09 0 0 0-.303.227c-.175.183-.294.412-.404.64-.11.23-.214.463-.366.666s-.36.375-.608.43c-.168.037-.342.02-.512 0-.17-.018-.345-.036-.512 0-.248.054-.457.224-.61.425-.154.201-.26.434-.37.661-.112.228-.23.456-.404.64a1.116 1.116 0 0 1-.3.23.818.818 0 0 1-.365.092c-.177.001-.347-.062-.52-.094a.825.825 0 0 0-.265-.012.446.446 0 0 0-.239.106.436.436 0 0 0-.126.233.73.73 0 0 0 0 .268c.028.178.1.346.126.524a1.05 1.05 0 0 1-.24.827 1.05 1.05 0 0 1-.784.359 1.05 1.05 0 0 1-.783-.359 1.05 1.05 0 0 1-.241-.827l-3.073 2.048z" style="fill:#d1438b;fill-opacity:1;fill-rule:evenodd;stroke:none;stroke-width:1px;stroke-linecap:butt;stroke-linejoin:miter;stroke-opacity:1"/>
      </g>
    </g>
    <path d="m1369.295 946.874 22.531 25.604h0M1506.532 1336.053l-15.363-30.725M1303.749 1216.227l-3.073 27.652" style="fill:none;fill-opacity:.98823529;fill-rule:evenodd;stroke:#3280ec;stroke-width:10;stroke-linecap:round;stroke-linejoin:miter;stroke-miterlimit:4;stroke-dasharray:none;stroke-opacity:1" transform="translate(-1035.497 -717.282)"/>
    <path d="m1355.98 872.111 14.339-24.58h0" style="fill:none;fill-opacity:.98823529;fill-rule:evenodd;stroke:#3280ec;stroke-width:11;stroke-linecap:round;stroke-linejoin:miter;stroke-miterlimit:4;stroke-dasharray:none;stroke-opacity:1" transform="translate(-1035.497 -717.282)"/>
    <path d="m1182.899 1087.184 26.628-34.822" style="fill:none;fill-opacity:.98823529;fill-rule:evenodd;stroke:#3280ec;stroke-width:10;stroke-linecap:round;stroke-linejoin:miter;stroke-miterlimit:4;stroke-dasharray:none;stroke-opacity:1" transform="translate(-1035.497 -717.282)"/>
    <path d="m1257.662 942.778-11.266-20.483" style="fill:none;fill-opacity:.98823529;fill-rule:evenodd;stroke:#3280ec;stroke-width:11;stroke-linecap:round;stroke-linejoin:miter;stroke-miterlimit:4;stroke-dasharray:none;stroke-opacity:1" transform="translate(-1035.497 -717.282)"/>
    <path d="m1554.667 1181.406 14.338 21.507M1557.74 1064.652l19.458-28.676" style="fill:none;fill-opacity:.98823529;fill-rule:evenodd;stroke:#3280ec;stroke-width:10;stroke-linecap:round;stroke-linejoin:miter;stroke-miterlimit:4;stroke-dasharray:none;stroke-opacity:1" transform="translate(-1035.497 -717.282)"/>
    <path d="m1684.734 1160.923-16.386-20.483" style="fill:none;fill-opacity:.98823529;fill-rule:evenodd;stroke:#3280ec;stroke-width:12;stroke-linecap:round;stroke-linejoin:miter;stroke-miterlimit:4;stroke-dasharray:none;stroke-opacity:1" transform="translate(-1035.497 -717.282)"/>
    <path d="m1494.242 897.715 29.7-15.362" style="fill:none;fill-opacity:.98823529;fill-rule:evenodd;stroke:#3280ec;stroke-width:11;stroke-linecap:round;stroke-linejoin:round;stroke-miterlimit:4;stroke-dasharray:none;stroke-opacity:1" transform="translate(-1035.497 -717.282)"/>
    <path d="m1344.715 1368.826 14.338-29.7" style="fill:none;fill-opacity:.98823529;fill-rule:evenodd;stroke:#3280ec;stroke-width:11;stroke-linecap:round;stroke-linejoin:miter;stroke-miterlimit:4;stroke-dasharray:none;stroke-opacity:1" transform="translate(-1035.497 -717.282)"/>
    <path d="m1594.609 918.198 22.531 25.604h0M1670.396 1069.773l-15.362-30.725M1520.87 1224.42l-3.073 27.652" style="fill:none;fill-rule:evenodd;stroke:#1cdaf5;stroke-width:10;stroke-linecap:round;stroke-linejoin:miter;stroke-miterlimit:4;stroke-dasharray:none;stroke-opacity:1" transform="translate(-1035.497 -717.282)"/>
    <path d="m1364.174 1269.483 14.338-24.58h0" style="fill:none;fill-rule:evenodd;stroke:#1cdaf5;stroke-width:11;stroke-linecap:round;stroke-linejoin:miter;stroke-miterlimit:4;stroke-dasharray:none;stroke-opacity:1" transform="translate(-1035.497 -717.282)"/>
    <path d="m1445.082 911.029 26.628-34.821" style="fill:none;fill-rule:evenodd;stroke:#1cdaf5;stroke-width:10;stroke-linecap:round;stroke-linejoin:miter;stroke-miterlimit:4;stroke-dasharray:none;stroke-opacity:1" transform="translate(-1035.497 -717.282)"/>
    <path d="m1220.792 1020.613-11.265-20.483" style="fill:none;fill-rule:evenodd;stroke:#1cdaf5;stroke-width:11;stroke-linecap:round;stroke-linejoin:miter;stroke-miterlimit:4;stroke-dasharray:none;stroke-opacity:1" transform="translate(-1035.497 -717.282)"/>
    <path d="m1198.261 1173.213 14.338 21.507M1246.396 1101.522l19.46-28.677" style="fill:none;fill-rule:evenodd;stroke:#1cdaf5;stroke-width:10;stroke-linecap:round;stroke-linejoin:miter;stroke-miterlimit:4;stroke-dasharray:none;stroke-opacity:1" transform="translate(-1035.497 -717.282)"/>
    <path d="m1426.647 1365.754-16.386-20.483" style="fill:none;fill-rule:evenodd;stroke:#1cdaf5;stroke-width:12;stroke-linecap:round;stroke-linejoin:miter;stroke-miterlimit:4;stroke-dasharray:none;stroke-opacity:1" transform="translate(-1035.497 -717.282)"/>
    <path d="m1309.894 914.101 29.7-15.362" style="fill:none;fill-rule:evenodd;stroke:#1cdaf5;stroke-width:11;stroke-linecap:round;stroke-linejoin:round;stroke-miterlimit:4;stroke-dasharray:none;stroke-opacity:1" transform="translate(-1035.497 -717.282)"/>
    <path d="m1635.575 1196.768 14.338-29.7" style="fill:none;fill-rule:evenodd;stroke:#1cdaf5;stroke-width:11;stroke-linecap:round;stroke-linejoin:miter;stroke-miterlimit:4;stroke-dasharray:none;stroke-opacity:1" transform="translate(-1035.497 -717.282)"/>
    <path d="m1533.16 877.232 22.53 25.604h0M1445.082 1286.894l-15.362-30.725M1275.072 1154.778 1272 1182.43" style="fill:none;fill-rule:evenodd;stroke:#f2f2f2;stroke-width:10;stroke-linecap:round;stroke-linejoin:miter;stroke-miterlimit:4;stroke-dasharray:none;stroke-opacity:1" transform="translate(-1035.497 -717.282)"/>
    <path d="m1614.068 1011.396 14.338-24.58h0" style="fill:none;fill-rule:evenodd;stroke:#f2f2f2;stroke-width:11;stroke-linecap:round;stroke-linejoin:miter;stroke-miterlimit:4;stroke-dasharray:none;stroke-opacity:1" transform="translate(-1035.497 -717.282)"/>
    <path d="m1273.024 980.671 26.628-34.82" style="fill:none;fill-rule:evenodd;stroke:#f2f2f2;stroke-width:10;stroke-linecap:round;stroke-linejoin:miter;stroke-miterlimit:4;stroke-dasharray:none;stroke-opacity:1" transform="translate(-1035.497 -717.282)"/>
    <path d="m1183.923 1114.836-11.266-20.483" style="fill:none;fill-rule:evenodd;stroke:#f2f2f2;stroke-width:11;stroke-linecap:round;stroke-linejoin:miter;stroke-miterlimit:4;stroke-dasharray:none;stroke-opacity:1" transform="translate(-1035.497 -717.282)"/>
    <path d="m1308.87 1287.918 14.338 21.507M1578.222 1285.87l19.46-28.677" style="fill:none;fill-rule:evenodd;stroke:#f2f2f2;stroke-width:10;stroke-linecap:round;stroke-linejoin:miter;stroke-miterlimit:4;stroke-dasharray:none;stroke-opacity:1" transform="translate(-1035.497 -717.282)"/>
    <path d="m1520.87 972.478-16.387-20.483" style="fill:none;fill-rule:evenodd;stroke:#f2f2f2;stroke-width:12;stroke-linecap:round;stroke-linejoin:miter;stroke-miterlimit:4;stroke-dasharray:none;stroke-opacity:1" transform="translate(-1035.497 -717.282)"/>
    <path d="m1592.56 1139.415 29.701-15.362" style="fill:none;fill-rule:evenodd;stroke:#f2f2f2;stroke-width:11;stroke-linecap:round;stroke-linejoin:round;stroke-miterlimit:4;stroke-dasharray:none;stroke-opacity:1" transform="translate(-1035.497 -717.282)"/>
    <path d="m1401.365 903.714 14.338-29.7" style="fill:none;fill-rule:evenodd;stroke:#f2f2f2;stroke-width:11;stroke-linecap:round;stroke-linejoin:miter;stroke-miterlimit:4;stroke-dasharray:none;stroke-opacity:1" transform="translate(-1035.497 -717.282)"/>
  </g>
</svg>
