<svg xmlns="http://www.w3.org/2000/svg" aria-hidden="true" style="position:absolute;width:0;height:0;overflow:hidden">
  <defs>
    <symbol id="icon-item" viewBox="0 0 32 32">
      <path fill="#fff" stroke="#f3848c" stroke-width="1.333" d="M31.333 16c0 8.468-6.865 15.333-15.333 15.333S.667 24.468.667 16 7.532.667 16 .667 31.333 7.532 31.333 16z" style="fill:var(--color1, #fff);stroke:var(--color2, #f3848c)"/>
      <path fill="#fff" d="M29.333 16c0 7.364-5.97 13.333-13.333 13.333S2.667 23.363 2.667 16C2.667 8.636 8.637 2.667 16 2.667S29.333 8.637 29.333 16z" style="fill:var(--color1, #fff)"/>
      <path fill="none" stroke="#f3848c" stroke-linecap="round" stroke-width=".667" d="M29 16c0 7.18-5.82 13-13 13S3 23.18 3 16 8.82 3 16 3s13 5.82 13 13z" style="stroke:var(--color2, #f3848c)"/>
      <path d="M9.333 10.953a2.857 2.857 0 0 0 2.38 2.813v4.329c0 .263.213.476.476.476h7.621a.476.476 0 0 0 .476-.476v-4.329a2.864 2.864 0 0 0 2.38-2.813 2.86 2.86 0 0 0-2.857-2.857h-1.077A3.33 3.33 0 0 0 16 6.667a3.333 3.333 0 0 0-2.732 1.429h-1.077a2.86 2.86 0 0 0-2.857 2.857zm3.334 6.191h6.667v.475h-6.667v-.475zm-.476-8.096h.616a3.3 3.3 0 0 0-.14.952.476.476 0 1 0 .952 0c0-1.313 1.068-2.381 2.381-2.381S18.381 8.687 18.381 10a.476.476 0 1 0 .952 0c0-.331-.049-.649-.14-.952h.616a1.907 1.907 0 0 1 1.347 3.25 1.903 1.903 0 0 1-1.342.56h-.006a.475.475 0 0 0-.475.475v2.86h-6.667v-2.86a.476.476 0 0 0-.476-.476h-.004a1.908 1.908 0 0 1-.003-3.808h.005zm9.046 11.429H10.762a.476.476 0 1 0 0 .952h10.475a.476.476 0 1 0 0-.952zm0 1.428H10.762a.477.477 0 1 0 0 .954h10.475a.477.477 0 1 0 0-.954zm-2.381 1.442h-5.712a.476.476 0 1 0 0 .952h5.712a.476.476 0 1 0 0-.952z" style="fill:var(--color3, #000)"/>
    </symbol>
  </defs>
</svg>
<svg aria-hidden="true" style="position: absolute; width: 0; height: 0; overflow: hidden;" version="1.1" xmlns="http://www.w3.org/2000/svg" xmlns:xlink="http://www.w3.org/1999/xlink">
<defs>
<symbol id="icon-bg_decor" viewBox="0 0 32 32">
<path fill="#f3848c" style="fill: var(--color1, #f3848c)" opacity="0.12" d="M32 16c0 8.836-7.164 16-16 16s-16-7.164-16-16 7.164-16 16-16 16 7.164 16 16zM6.186 16c0 5.42 4.394 9.814 9.814 9.814s9.814-4.394 9.814-9.814c0-5.42-4.394-9.814-9.814-9.814s-9.814 4.394-9.814 9.814z"></path>
</symbol>
<symbol id="icon-fb" viewBox="0 0 16 32">
<path d="M14.512 0.006l-3.616-0.006c-4.064 0-6.69 3.092-6.69 7.876v3.63h-3.638c-0.314 0-0.568 0.294-0.568 0.654v5.26c0 0.36 0.254 0.652 0.568 0.652h3.638v13.276c0 0.36 0.254 0.652 0.568 0.652h4.746c0.314 0 0.568-0.292 0.568-0.652v-13.276h4.252c0.314 0 0.568-0.292 0.568-0.652l0.002-5.26c0-0.174-0.060-0.34-0.166-0.462-0.097-0.116-0.241-0.189-0.402-0.192h-4.254v-3.078c0-1.48 0.308-2.23 1.988-2.23h2.436c0.314 0 0.568-0.294 0.568-0.654v-4.884c0-0.36-0.254-0.652-0.568-0.654z"></path>
</symbol>
<symbol id="icon-insta" viewBox="0 0 32 32">
<path d="M16.316 32h-0.32c-0.137 0.001-0.299 0.001-0.461 0.001-2.329 0-4.64-0.072-6.933-0.212l0.314 0.015c-2.066-0.126-3.952-0.84-5.454-2.064-1.45-1.182-2.44-2.78-2.942-4.75-0.44-1.716-0.46-3.4-0.484-5.026-0.016-1.17-0.032-2.554-0.036-3.96 0.004-1.414 0.020-2.8 0.036-3.968 0.022-1.628 0.046-3.31 0.484-5.026 0.5-1.97 1.492-3.568 2.94-4.75 1.506-1.224 3.392-1.94 5.46-2.064 2.252-0.138 4.57-0.2 7.084-0.196 0.132-0.001 0.288-0.001 0.443-0.001 2.335 0 4.653 0.071 6.952 0.212l-0.316-0.015c2.066 0.124 3.952 0.84 5.454 2.064 1.45 1.182 2.44 2.78 2.944 4.75 0.436 1.716 0.46 3.4 0.48 5.026 0.018 1.17 0.034 2.554 0.038 3.96v0.006c-0.004 1.408-0.020 2.792-0.036 3.96-0.022 1.63-0.046 3.312-0.482 5.028-0.504 1.97-1.494 3.568-2.944 4.75-1.502 1.224-3.388 1.94-5.454 2.064-1.968 0.125-4.268 0.196-6.585 0.196-0.064 0-0.129-0-0.193-0h0.010zM15.996 29.5c0.143 0.001 0.312 0.001 0.48 0.001 2.271 0 4.526-0.069 6.763-0.206l-0.307 0.015c1.56-0.096 2.916-0.602 4.026-1.508 1.026-0.836 1.734-1.99 2.1-3.43 0.364-1.428 0.386-2.96 0.406-4.444 0.016-1.16 0.032-2.534 0.036-3.928-0.004-1.394-0.020-2.768-0.036-3.93-0.020-1.48-0.040-3.014-0.406-4.44-0.368-1.44-1.074-2.596-2.1-3.432-1.11-0.906-2.464-1.412-4.026-1.508-1.93-0.122-4.186-0.191-6.457-0.191-0.167 0-0.333 0-0.5 0.001l0.026-0c-0.144-0.001-0.314-0.001-0.485-0.001-2.269 0-4.522 0.069-6.756 0.206l0.307-0.015c-1.56 0.096-2.916 0.602-4.026 1.508-1.026 0.836-1.734 1.99-2.1 3.43-0.364 1.428-0.386 2.96-0.406 4.442-0.016 1.162-0.032 2.538-0.036 3.932 0.004 1.39 0.020 2.766 0.036 3.926 0.020 1.484 0.040 3.016 0.406 4.444 0.366 1.44 1.074 2.594 2.1 3.43 1.11 0.906 2.464 1.412 4.026 1.508 2.2 0.134 4.468 0.196 6.928 0.19zM15.936 23.812c-4.312-0.006-7.805-3.5-7.81-7.812v-0c0.005-4.313 3.501-7.809 7.814-7.812h0c4.312 0.006 7.805 3.5 7.81 7.812v0c-0.005 4.313-3.499 7.807-7.812 7.812h-0zM15.936 10.688c-2.931 0.006-5.305 2.381-5.31 5.312v0c0.005 2.933 2.381 5.309 5.314 5.312h0c2.931-0.006 5.305-2.381 5.31-5.312v-0c-0.005-2.932-2.38-5.307-5.312-5.312h-0zM24.626 5.688c-0.018-0.001-0.040-0.001-0.061-0.001-1.036 0-1.876 0.84-1.876 1.876s0.84 1.876 1.876 1.876c0.022 0 0.043-0 0.064-0.001l-0.003 0c1.009-0.034 1.815-0.86 1.815-1.875s-0.805-1.841-1.812-1.875l-0.003-0z"></path>
</symbol>
<symbol id="icon-twi" viewBox="0 0 34 32">
<path d="M34.133 3.669c-1.17 0.587-2.528 1.021-3.96 1.229l-0.072 0.009c1.451-0.969 2.558-2.492 3.078-4.324-1.269 0.857-2.754 1.511-4.349 1.875l-0.088 0.017c-1.284-1.527-3.115-2.475-5.111-2.475-3.874 0-6.993 3.516-6.993 7.825 0 0.619 0.047 1.216 0.162 1.783-5.818-0.318-10.965-3.435-14.423-8.183-0.604 1.145-0.958 2.503-0.958 3.944 0 0.004 0 0.008 0 0.012v-0.001c0 2.709 1.248 5.109 3.108 6.5-1.177-0.040-2.263-0.394-3.188-0.98l0.026 0.015v0.085c0 3.804 2.426 6.961 5.606 7.689-0.57 0.173-1.19 0.256-1.835 0.256-0.448 0-0.9-0.028-1.325-0.132 0.907 3.098 3.479 5.376 6.539 5.449-2.381 2.082-5.404 3.337-8.676 3.337-0.574 0-1.124-0.030-1.675-0.107 3.1 2.234 6.773 3.509 10.735 3.509 12.877 0 19.917-11.925 19.917-22.259 0-0.346-0.011-0.681-0.026-1.011 1.395-1.13 2.563-2.475 3.469-3.993l0.038-0.068z"></path>
</symbol>

<symbol id="icon-inst" viewBox="0 0 32 32">
<path d="M16.316 32h-0.32c-0.137 0.001-0.299 0.001-0.461 0.001-2.329 0-4.64-0.072-6.933-0.212l0.314 0.015c-2.066-0.126-3.952-0.84-5.454-2.064-1.45-1.182-2.44-2.78-2.942-4.75-0.44-1.716-0.46-3.4-0.484-5.026-0.016-1.17-0.032-2.554-0.036-3.96 0.004-1.414 0.020-2.8 0.036-3.968 0.022-1.628 0.046-3.31 0.484-5.026 0.5-1.97 1.492-3.568 2.94-4.75 1.506-1.224 3.392-1.94 5.46-2.064 2.252-0.138 4.57-0.2 7.084-0.196 0.132-0.001 0.288-0.001 0.443-0.001 2.335 0 4.653 0.071 6.952 0.212l-0.316-0.015c2.066 0.124 3.952 0.84 5.454 2.064 1.45 1.182 2.44 2.78 2.944 4.75 0.436 1.716 0.46 3.4 0.48 5.026 0.018 1.17 0.034 2.554 0.038 3.96v0.006c-0.004 1.408-0.020 2.792-0.036 3.96-0.022 1.63-0.046 3.312-0.482 5.028-0.504 1.97-1.494 3.568-2.944 4.75-1.502 1.224-3.388 1.94-5.454 2.064-1.968 0.125-4.268 0.196-6.585 0.196-0.064 0-0.129-0-0.193-0h0.010zM15.996 29.5c0.143 0.001 0.312 0.001 0.48 0.001 2.271 0 4.526-0.069 6.763-0.206l-0.307 0.015c1.56-0.096 2.916-0.602 4.026-1.508 1.026-0.836 1.734-1.99 2.1-3.43 0.364-1.428 0.386-2.96 0.406-4.444 0.016-1.16 0.032-2.534 0.036-3.928-0.004-1.394-0.020-2.768-0.036-3.93-0.020-1.48-0.040-3.014-0.406-4.44-0.368-1.44-1.074-2.596-2.1-3.432-1.11-0.906-2.464-1.412-4.026-1.508-1.93-0.122-4.186-0.191-6.457-0.191-0.167 0-0.333 0-0.5 0.001l0.026-0c-0.144-0.001-0.314-0.001-0.485-0.001-2.269 0-4.522 0.069-6.756 0.206l0.307-0.015c-1.56 0.096-2.916 0.602-4.026 1.508-1.026 0.836-1.734 1.99-2.1 3.43-0.364 1.428-0.386 2.96-0.406 4.442-0.016 1.162-0.032 2.538-0.036 3.932 0.004 1.39 0.020 2.766 0.036 3.926 0.020 1.484 0.040 3.016 0.406 4.444 0.366 1.44 1.074 2.594 2.1 3.43 1.11 0.906 2.464 1.412 4.026 1.508 2.2 0.134 4.468 0.196 6.928 0.19zM15.936 23.812c-4.312-0.006-7.805-3.5-7.81-7.812v-0c0.005-4.313 3.501-7.809 7.814-7.812h0c4.312 0.006 7.805 3.5 7.81 7.812v0c-0.005 4.313-3.499 7.807-7.812 7.812h-0zM15.936 10.688c-2.931 0.006-5.305 2.381-5.31 5.312v0c0.005 2.933 2.381 5.309 5.314 5.312h0c2.931-0.006 5.305-2.381 5.31-5.312v-0c-0.005-2.932-2.38-5.307-5.312-5.312h-0zM24.626 5.688c-0.018-0.001-0.040-0.001-0.061-0.001-1.036 0-1.876 0.84-1.876 1.876s0.84 1.876 1.876 1.876c0.022 0 0.043-0 0.064-0.001l-0.003 0c1.009-0.034 1.815-0.86 1.815-1.875s-0.805-1.841-1.812-1.875l-0.003-0z"></path>
</symbol>
<symbol id="icon-facebook" viewBox="0 0 16 32">
<path d="M14.512 0.006l-3.616-0.006c-4.064 0-6.69 3.092-6.69 7.876v3.63h-3.638c-0.314 0-0.568 0.294-0.568 0.654v5.26c0 0.36 0.254 0.652 0.568 0.652h3.638v13.276c0 0.36 0.254 0.652 0.568 0.652h4.746c0.314 0 0.568-0.292 0.568-0.652v-13.276h4.252c0.314 0 0.568-0.292 0.568-0.652l0.002-5.26c0-0.174-0.060-0.34-0.166-0.462-0.097-0.116-0.241-0.189-0.402-0.192h-4.254v-3.078c0-1.48 0.308-2.23 1.988-2.23h2.436c0.314 0 0.568-0.294 0.568-0.654v-4.884c0-0.36-0.254-0.652-0.568-0.654z"></path>
</symbol>
<symbol id="icon-phone" viewBox="0 0 32 32">
<path d="M29.43 20.474c-1.959 0-3.882-0.299-5.705-0.886-0.893-0.297-1.991-0.025-2.536 0.521l-3.598 2.648c-4.172-2.171-6.743-4.676-8.939-8.713l2.636-3.416c0.685-0.667 0.931-1.641 0.636-2.554-0.605-1.786-0.912-3.66-0.912-5.571 0-1.38-1.152-2.503-2.567-2.503h-5.876c-1.416 0-2.568 1.123-2.568 2.503 0 15.819 13.202 28.689 29.43 28.689 1.416 0 2.568-1.123 2.568-2.503v-5.712c0-1.38-1.152-2.503-2.568-2.503z"></path>
</symbol>
<symbol id="icon-twitter" viewBox="0 0 34 32">
<path d="M34.133 3.669c-1.17 0.587-2.528 1.021-3.96 1.229l-0.072 0.009c1.451-0.969 2.558-2.492 3.078-4.324-1.269 0.857-2.754 1.511-4.349 1.875l-0.088 0.017c-1.284-1.527-3.115-2.475-5.111-2.475-3.874 0-6.993 3.516-6.993 7.825 0 0.619 0.047 1.216 0.162 1.783-5.818-0.318-10.965-3.435-14.423-8.183-0.604 1.145-0.958 2.503-0.958 3.944 0 0.004 0 0.008 0 0.012v-0.001c0 2.709 1.248 5.109 3.108 6.5-1.177-0.040-2.263-0.394-3.188-0.98l0.026 0.015v0.085c0 3.804 2.426 6.961 5.606 7.689-0.57 0.173-1.19 0.256-1.835 0.256-0.448 0-0.9-0.028-1.325-0.132 0.907 3.098 3.479 5.376 6.539 5.449-2.381 2.082-5.404 3.337-8.676 3.337-0.574 0-1.124-0.030-1.675-0.107 3.1 2.234 6.773 3.509 10.735 3.509 12.877 0 19.917-11.925 19.917-22.259 0-0.346-0.011-0.681-0.026-1.011 1.395-1.13 2.563-2.475 3.469-3.993l0.038-0.068z"></path>
</symbol>
<symbol id="icon-location" viewBox="0 0 23 32">
<path d="M11.733 0c6.47 0 11.733 5.131 11.733 11.438 0 2.496-0.809 4.867-2.341 6.857l-8.669 11.382c-0.022 0.028-0.055 0.038-0.079 0.063-0.433 0.452-1.058 0.339-1.367-0.063-2.496-3.247-7.072-9.312-8.832-11.599 0 0-0.001-0.002-0.001-0.003l-0.011-0.014c-1.418-1.942-2.167-4.232-2.167-6.623 0-6.307 5.264-11.438 11.733-11.438zM11.733 17.609c3.483 0 6.33-2.775 6.33-6.171s-2.847-6.171-6.33-6.171c-3.483 0-6.33 2.775-6.33 6.171s2.847 6.171 6.33 6.171z"></path>
</symbol>

<symbol id="icon-close-btn" viewBox="0 0 32 32">
<path d="M28.614 1.13l-12.614 12.614-12.614-12.614c-0.283-0.26-0.662-0.419-1.078-0.419-0.882 0-1.597 0.715-1.597 1.597 0 0.416 0.159 0.795 0.42 1.079l-0.001-0.001 12.608 12.614-12.611 12.611c-0.309 0.292-0.502 0.704-0.502 1.161 0 0.881 0.714 1.595 1.595 1.595 0.233 0 0.455-0.050 0.654-0.14l-0.010 0.004c0.202-0.089 0.375-0.211 0.518-0.361l0.001-0.001 12.618-12.611 12.614 12.614c0.283 0.26 0.662 0.419 1.078 0.419 0.882 0 1.597-0.715 1.597-1.597 0-0.416-0.159-0.795-0.42-1.079l0.001 0.001-12.614-12.614 12.614-12.618c0.289-0.289 0.468-0.688 0.468-1.13 0-0.882-0.715-1.596-1.596-1.596-0.44 0-0.839 0.178-1.128 0.467l0-0v0.003z"></path>
</symbol>

<symbol id="icon-menu" viewBox="0 0 60 32">
<path d="M2 0h56c1.105 0 2 0.895 2 2s-0.895 2-2 2h-56c-1.105 0-2-0.895-2-2s0.895-2 2-2z"></path>
<path d="M2 14h56c1.105 0 2 0.895 2 2s-0.895 2-2 2h-56c-1.105 0-2-0.895-2-2s0.895-2 2-2z"></path>
<path d="M2 28h56c1.105 0 2 0.895 2 2s-0.895 2-2 2h-56c-1.105 0-2-0.895-2-2s0.895-2 2-2z"></path>
</symbol>

</defs>
</svg>
