<svg width="320" height="800" viewBox="0 0 320 800" fill="none" xmlns="http://www.w3.org/2000/svg">
<path d="M200 622C200 633.046 191.046 642 180 642C168.954 642 160 633.046 160 622C160 610.954 168.954 602 180 602C191.046 602 200 610.954 200 622ZM167.732 622C167.732 628.775 173.225 634.268 180 634.268C186.775 634.268 192.268 628.775 192.268 622C192.268 615.225 186.775 609.732 180 609.732C173.225 609.732 167.732 615.225 167.732 622Z" fill="#F3848C" fill-opacity="0.12"/>
<path d="M17 780C17 791.046 8.04569 800 -3 800C-14.0457 800 -23 791.046 -23 780C-23 768.954 -14.0457 760 -3 760C8.04569 760 17 768.954 17 780ZM-15.2679 780C-15.2679 786.775 -9.77535 792.268 -3 792.268C3.77535 792.268 9.26785 786.775 9.26785 780C9.26785 773.225 3.77535 767.732 -3 767.732C-9.77535 767.732 -15.2679 773.225 -15.2679 780Z" fill="#F3848C" fill-opacity="0.12"/>
<path d="M242 25C242 38.8071 230.807 50 217 50C203.193 50 192 38.8071 192 25C192 11.1929 203.193 0 217 0C230.807 0 242 11.1929 242 25ZM198.515 25C198.515 35.2089 206.791 43.4849 217 43.4849C227.209 43.4849 235.485 35.2089 235.485 25C235.485 14.7911 227.209 6.51513 217 6.51513C206.791 6.51513 198.515 14.7911 198.515 25Z" fill="#3C322D" fill-opacity="0.12"/>
<path d="M343 198C343 211.807 331.807 223 318 223C304.193 223 293 211.807 293 198C293 184.193 304.193 173 318 173C331.807 173 343 184.193 343 198ZM302.628 198C302.628 206.49 309.51 213.372 318 213.372C326.49 213.372 333.372 206.49 333.372 198C333.372 189.51 326.49 182.628 318 182.628C309.51 182.628 302.628 189.51 302.628 198Z" fill="#D68362" fill-opacity="0.15"/>
<path d="M265 364C265 369.523 260.523 374 255 374C249.477 374 245 369.523 245 364C245 358.477 249.477 354 255 354C260.523 354 265 358.477 265 364ZM247.606 364C247.606 368.084 250.916 371.394 255 371.394C259.084 371.394 262.394 368.084 262.394 364C262.394 359.916 259.084 356.606 255 356.606C250.916 356.606 247.606 359.916 247.606 364Z" fill="#3C322D" fill-opacity="0.12"/>
<path d="M22 299C22 312.807 10.8071 324 -3 324C-16.8071 324 -28 312.807 -28 299C-28 285.193 -16.8071 274 -3 274C10.8071 274 22 285.193 22 299ZM-21.2533 299C-21.2533 309.081 -13.081 317.253 -3 317.253C7.08102 317.253 15.2533 309.081 15.2533 299C15.2533 288.919 7.08102 280.747 -3 280.747C-13.081 280.747 -21.2533 288.919 -21.2533 299Z" fill="#D68362" fill-opacity="0.17"/>
<path d="M331 471C331 479.837 323.837 487 315 487C306.163 487 299 479.837 299 471C299 462.163 306.163 455 315 455C323.837 455 331 462.163 331 471ZM308.599 471C308.599 474.535 311.465 477.401 315 477.401C318.535 477.401 321.401 474.535 321.401 471C321.401 467.465 318.535 464.599 315 464.599C311.465 464.599 308.599 467.465 308.599 471Z" fill="#3C322D" fill-opacity="0.06"/>
</svg>
